<?xml version="1.0" standalone="no"?>
<!DOCTYPE svg PUBLIC "-//W3C//DTD SVG 20010904//EN"
 "http://www.w3.org/TR/2001/REC-SVG-20010904/DTD/svg10.dtd">
<svg version="1.0" xmlns="http://www.w3.org/2000/svg"
 width="384.000000pt" height="384.000000pt" viewBox="0 0 384.000000 384.000000"
 preserveAspectRatio="xMidYMid meet">
<metadata>
Created by potrace 1.14, written by Peter Selinger 2001-2017
</metadata>
<g transform="translate(0.000000,384.000000) scale(0.100000,-0.100000)"
fill="#000000" stroke="none">
<path d="M2915 3170 c-126 -19 -241 -66 -364 -149 l-93 -63 -77 31 c-106 43
-176 58 -326 72 -202 18 -358 4 -526 -47 -84 -26 -88 -26 -120 -10 -123 62
-309 120 -442 137 -105 13 -270 -4 -340 -35 -80 -36 -192 -142 -235 -222 -6
-11 -18 -62 -27 -114 -23 -133 -7 -201 81 -347 36 -60 75 -118 86 -130 l20
-21 -40 -26 c-131 -83 -359 -358 -433 -523 -26 -57 -38 -113 -24 -113 2 0 30
18 61 40 32 22 61 40 65 40 5 0 0 -15 -11 -32 -24 -41 -55 -128 -69 -193 -19
-86 -29 -207 -17 -210 6 -2 49 -6 95 -8 74 -5 88 -9 125 -36 122 -93 246 -141
362 -141 109 0 217 -24 459 -102 157 -50 229 -79 251 -98 42 -36 188 -132 249
-162 133 -67 346 -95 491 -64 113 25 191 54 250 92 54 36 164 145 164 163 0 6
12 11 26 11 22 0 113 43 149 69 6 5 75 34 155 66 80 32 150 61 155 65 6 5 60
20 120 34 184 44 227 58 310 99 78 39 83 40 182 39 127 -1 130 2 113 95 -17
100 -30 141 -68 217 l-34 69 61 -6 c48 -5 63 -4 67 7 8 21 -64 149 -135 239
-85 107 -224 249 -305 312 -68 52 -76 65 -52 84 18 15 104 159 135 225 43 94
51 255 17 367 -35 115 -126 223 -227 268 -35 16 -64 20 -139 20 -52 -1 -117
-5 -145 -9z m233 -141 c95 -54 147 -169 147 -324 0 -168 -79 -321 -196 -380
-19 -10 -35 -18 -36 -19 -1 0 -4 -13 -8 -27 -5 -22 -1 -29 32 -51 49 -32 195
-163 353 -316 l125 -122 -57 0 c-63 0 -72 -6 -55 -38 105 -189 115 -210 122
-278 l7 -61 -58 -7 c-32 -4 -92 -22 -133 -40 -71 -32 -160 -61 -165 -54 -1 2
-10 24 -20 51 -19 50 -71 133 -115 181 l-26 29 38 -7 c33 -6 37 -5 37 14 0 55
-119 185 -264 288 -48 35 -154 97 -235 138 -126 65 -157 76 -226 85 -105 14
-187 5 -255 -28 -136 -67 -198 -198 -156 -333 36 -116 44 -125 292 -362 96
-92 112 -114 130 -182 29 -107 9 -198 -58 -262 -50 -48 -182 -119 -260 -140
-96 -25 -237 -15 -359 26 -189 64 -267 131 -285 247 -7 44 23 159 55 208 32
49 24 40 152 171 103 106 128 138 183 238 79 142 36 309 -98 378 -148 76 -374
75 -528 -3 -58 -29 -135 -78 -165 -104 -7 -5 -34 -26 -60 -45 -109 -80 -209
-195 -307 -353 -21 -34 -66 -151 -66 -171 0 -17 54 -15 87 2 39 22 41 13 12
-55 -16 -38 -29 -76 -29 -85 0 -15 -9 -18 -55 -18 -30 0 -64 4 -77 9 -13 5
-41 14 -63 21 -22 7 -85 41 -139 76 -55 35 -103 64 -108 64 -14 0 -9 44 12
111 30 92 65 161 136 271 35 54 64 102 64 108 0 12 -32 13 -83 1 -20 -5 -39
-5 -42 -1 -10 16 261 260 288 260 14 0 127 110 127 124 0 4 -31 38 -68 74
-103 101 -155 222 -155 362 0 129 31 186 138 255 99 64 227 71 410 24 123 -31
264 -92 319 -138 13 -11 21 -11 49 2 173 83 411 123 574 98 125 -19 332 -72
408 -103 69 -28 70 -28 86 -9 30 36 210 149 278 176 85 32 181 53 246 54 38 1
62 -6 103 -30z m-1772 -70 c19 -11 34 -22 34 -25 0 -6 -34 8 -50 21 -8 7 -22
15 -30 18 -12 4 -12 6 -1 6 7 1 29 -8 47 -20z m149 -988 c0 -8 -24 -27 -53
-42 -30 -15 -62 -35 -72 -44 -25 -23 -49 -96 -43 -129 4 -20 -9 -48 -59 -124
-117 -175 -144 -220 -240 -402 -16 -30 -33 -58 -37 -62 -4 -5 -26 0 -49 9 -31
12 -41 21 -37 32 5 13 148 246 217 354 15 23 37 58 48 77 11 19 25 42 30 50 5
8 31 51 57 95 26 44 51 82 55 83 4 2 8 8 8 14 0 6 11 26 25 44 14 18 25 37 25
43 0 13 27 19 80 18 31 -2 45 -6 45 -16z m865 -6 c0 -18 -9 -22 -77 -29 -44
-4 -51 -3 -46 10 12 33 123 49 123 19z m-749 -12 c5 -5 4 -15 -1 -22 -13 -22
-92 3 -83 25 4 12 15 15 41 10 19 -3 39 -9 43 -13z m851 -12 c26 -16 26 -17
10 -38 l-17 -22 -41 27 c-34 23 -39 31 -30 45 12 19 34 15 78 -12z m-1149 -13
c-57 -96 -247 -404 -291 -473 -29 -44 -64 -100 -78 -125 -71 -119 -82 -130
-114 -110 -12 8 -13 16 -2 57 19 71 67 162 117 223 25 30 44 59 43 65 -2 15
13 46 35 71 11 13 25 32 31 43 6 10 48 71 94 134 64 89 91 119 120 131 59 24
67 21 45 -16z m887 8 c0 -13 -93 -176 -101 -176 -29 0 7 100 53 148 28 28 48
40 48 28z m-526 -25 c19 -21 18 -62 -1 -68 -15 -5 -45 51 -37 71 8 21 17 20
38 -3z m881 -13 c30 -14 30 -15 -32 -140 -55 -112 -104 -221 -123 -268 -7 -19
-17 -39 -21 -44 -4 -5 -46 26 -94 69 -68 62 -83 80 -74 91 13 16 95 19 103 5
3 -5 -1 -25 -9 -45 -17 -41 -18 -46 -7 -46 5 0 17 19 28 41 11 25 33 51 55 65
21 13 50 40 66 60 24 32 28 47 29 103 1 69 18 121 40 121 7 0 25 -5 39 -12z
m-963 -45 c56 -64 17 -138 -58 -113 -53 18 -72 74 -37 112 21 23 75 24 95 1z
m802 -8 c21 -19 26 -31 20 -48 -22 -69 -66 -86 -109 -42 -69 69 18 156 89 90z
m286 -25 c0 -11 -11 -41 -24 -68 -35 -68 -86 -178 -86 -185 0 -3 -15 -38 -34
-79 -18 -40 -36 -83 -40 -95 -13 -41 -29 -44 -62 -9 l-31 33 19 39 c11 21 28
60 39 86 26 66 127 278 145 306 14 21 16 21 44 7 18 -9 30 -23 30 -35z m-1550
22 c0 -5 -38 -61 -84 -126 -47 -64 -86 -122 -88 -128 -5 -13 -100 -29 -111
-18 -12 11 256 280 279 280 2 0 4 -4 4 -8z m580 -67 c0 -73 -36 -125 -152
-216 l-42 -34 24 43 c13 23 38 51 55 61 30 18 75 93 75 126 0 18 22 55 32 55
5 0 8 -16 8 -35z m1048 6 c24 -21 27 -33 12 -59 -8 -15 -24 -52 -50 -117 -109
-270 -179 -421 -189 -409 -4 5 -15 35 -25 68 l-18 58 30 62 c52 107 142 297
142 300 0 2 11 29 25 60 27 60 38 66 73 37z m-611 -58 c3 -10 17 -33 31 -51
18 -25 21 -37 13 -45 -8 -8 -18 -4 -37 14 -35 32 -46 56 -39 79 8 25 24 26 32
3z m713 -23 l35 -29 -52 -1 c-29 0 -53 2 -53 4 0 14 21 56 27 56 5 0 24 -14
43 -30z m-1480 -34 l23 -25 -76 -123 c-115 -189 -207 -359 -207 -385 0 -16
-24 -17 -67 -1 -39 14 -40 20 -10 74 49 91 68 123 132 229 115 188 160 254
171 255 6 0 21 -11 34 -24z m1441 -64 l31 -28 -47 -100 c-84 -178 -93 -198
-124 -273 -17 -40 -31 -78 -31 -85 0 -14 -34 -36 -79 -52 l-33 -12 5 46 c3 28
27 94 61 164 31 65 56 120 56 123 0 5 33 80 81 183 16 34 34 62 39 62 5 0 24
-13 41 -28z m-1303 3 c3 -3 -24 -52 -71 -127 -60 -95 -117 -190 -172 -288 -64
-116 -65 -116 -115 -101 -49 15 -50 11 25 132 30 49 55 91 55 94 0 5 109 190
153 257 l30 47 46 -6 c25 -3 47 -7 49 -8z m1394 -82 c33 -32 34 -39 9 -90 -11
-21 -42 -86 -69 -145 -49 -103 -52 -108 -103 -133 l-52 -27 7 29 c4 15 13 42
21 58 7 17 30 70 50 120 49 117 96 215 103 215 3 0 19 -12 34 -27z m78 -207
c-36 -79 -39 -81 -86 -97 -27 -9 -50 -15 -52 -14 -3 2 21 63 54 133 13 29 24
55 24 58 0 3 10 20 22 36 l21 31 27 -33 27 -33 -37 -81z m90 -8 c0 -18 -29
-41 -67 -53 -22 -6 -22 -6 -7 31 9 20 23 48 31 61 l16 25 13 -24 c7 -12 13
-31 14 -40z m-1800 -207 c0 -5 3 -16 6 -25 5 -12 0 -16 -20 -16 -29 0 -30 3
-16 31 11 20 30 26 30 10z"/>
<path d="M2960 2933 c-76 -16 -280 -132 -280 -160 0 -6 15 -16 33 -23 l32 -11
-60 -23 c-33 -13 -59 -26 -57 -29 1 -4 2 -12 2 -17 0 -6 39 -29 87 -51 48 -23
130 -68 181 -101 69 -45 96 -58 104 -50 9 9 6 18 -12 37 -23 25 -24 27 -7 53
9 15 27 47 39 72 13 25 25 47 28 50 14 14 64 118 69 144 5 21 14 32 31 36 66
16 -7 67 -106 74 -32 3 -70 2 -84 -1z m149 -80 c0 -5 -10 -26 -22 -48 -24 -44
-51 -54 -82 -31 -18 13 -18 16 -5 41 8 15 24 31 35 36 26 10 75 11 74 2z
m-144 -44 c-8 -12 -35 -12 -35 0 0 11 22 20 33 14 4 -2 5 -9 2 -14z m65 -99
c0 -6 -10 -27 -23 -48 -12 -20 -29 -49 -36 -64 -18 -35 -31 -35 -62 -2 l-24
25 20 36 c13 24 32 41 55 49 44 16 70 17 70 4z m-160 -50 c0 -5 -7 -10 -15
-10 -8 0 -15 5 -15 10 0 6 7 10 15 10 8 0 15 -4 15 -10z"/>
<path d="M850 2873 c-117 -21 -209 -93 -118 -93 l29 0 -40 -74 c-43 -78 -46
-86 -32 -86 5 0 31 35 57 78 26 42 49 79 50 80 6 9 81 12 93 3 11 -7 5 -21
-31 -73 -51 -70 -121 -184 -131 -210 -13 -36 28 3 73 70 47 68 77 86 115 65
12 -7 7 -21 -31 -82 -92 -149 -79 -168 16 -22 61 93 67 100 99 100 l33 1 -35
-40 c-20 -21 -48 -57 -62 -79 -46 -74 -29 -81 48 -18 29 24 90 59 135 78 45
19 82 39 82 44 0 6 -14 23 -31 38 -38 33 -31 47 24 47 54 0 71 11 62 39 -23
75 -272 157 -405 134z m158 -107 c9 -10 -12 -28 -60 -52 -27 -14 -52 -23 -55
-21 -2 3 8 23 24 46 24 36 32 41 57 36 16 -3 31 -7 34 -9z"/>
<path d="M3129 2614 c-53 -86 -81 -152 -77 -182 3 -23 9 -17 43 48 78 148 103
247 34 134z"/>
<path d="M1927 1210 c-52 -10 -137 -71 -178 -128 -30 -42 -34 -54 -34 -114 0
-57 4 -70 25 -93 52 -56 94 -69 220 -70 100 0 120 3 157 22 22 12 51 34 62 49
64 81 -28 276 -155 329 -39 16 -41 16 -97 5z"/>
</g>
</svg>
