<?xml version="1.0" encoding="utf-8"?>
<svg width="32" height="32" viewBox="0 0 256 256" fill="#ffffff" xmlns="http://www.w3.org/2000/svg">
  <defs/>
  <path d="M 244.571 188.09 L 150.879 36.22 C 140.626 19.926 115.384 19.926 105.132 36.22 L 11.44 188.09 C 6.853 195.417 6.853 204.483 11.44 211.81 C 16.146 219.431 24.891 224.091 34.313 224 L 221.697 224 C 231.113 224.084 239.847 219.425 244.549 211.81 C 249.142 204.486 249.151 195.421 244.571 188.09 Z M 229.711 203.8 C 228.048 206.448 224.986 208.053 221.697 208 L 34.313 208 C 31.026 208.053 27.963 206.448 26.299 203.8 C 24.794 201.419 24.794 198.461 26.299 196.08 L 119.991 44.21 C 123.634 38.553 132.419 38.553 136.062 44.21 L 229.754 196.08 C 231.247 198.468 231.231 201.426 229.711 203.8 Z" style="fill: rgb(0, 0, 0);"/>
  <path d="M 99.369 120 L 99.369 182.744 L 85.839 182.744 L 85.839 135.237 C 85.095 135.893 81.101 138.211 79.955 138.682 C 78.81 139.153 73.942 140.443 72.74 140.586 L 72.74 129.202 C 76.262 128.175 79.583 126.861 82.704 125.264 C 85.825 123.666 88.646 121.91 91.166 120 L 99.369 120 Z M 108.143 166.223 C 108.143 164.512 108.393 162.863 108.894 161.28 C 109.395 159.696 110.147 158.227 111.149 156.871 C 112.151 155.515 113.404 154.303 114.907 153.233 C 116.41 152.163 118.179 151.286 120.212 150.601 C 117.09 149.061 114.67 147.085 112.952 144.674 C 111.235 142.262 110.376 139.587 110.376 136.649 C 110.376 134.31 110.869 132.141 111.857 130.144 C 112.845 128.146 114.213 126.42 115.959 124.965 C 117.705 123.51 119.788 122.375 122.208 121.562 C 124.628 120.75 127.27 120.343 130.133 120.343 C 133.054 120.343 135.731 120.75 138.165 121.562 C 140.599 122.375 142.696 123.503 144.457 124.944 C 146.217 126.385 147.585 128.089 148.559 130.059 C 149.532 132.025 150.019 134.165 150.019 136.477 C 150.019 139.388 149.103 142.034 147.269 144.417 C 145.438 146.8 142.904 148.761 139.668 150.301 C 141.672 150.986 143.433 151.864 144.951 152.934 C 146.468 154.004 147.742 155.223 148.773 156.593 C 149.804 157.963 150.577 159.454 151.093 161.065 C 151.608 162.677 151.865 164.354 151.865 166.094 C 151.865 168.719 151.335 171.109 150.276 173.263 C 149.217 175.418 147.721 177.272 145.789 178.827 C 143.856 180.382 141.55 181.589 138.873 182.443 C 136.196 183.3 133.24 183.728 130.004 183.728 C 126.825 183.728 123.898 183.307 121.221 182.465 C 118.544 181.624 116.239 180.432 114.306 178.891 C 112.373 177.35 110.862 175.503 109.774 173.35 C 108.687 171.194 108.143 168.819 108.143 166.223 Z M 120.985 165.067 C 120.985 166.465 122.675 170.888 123.476 171.658 C 124.277 172.429 128.673 174.055 130.047 174.055 C 131.365 174.055 135.731 172.385 136.532 171.615 C 137.334 170.845 139.11 166.437 139.11 165.067 C 139.11 163.841 137.42 159.481 136.619 158.669 C 135.817 157.856 131.422 155.995 130.047 155.995 C 128.758 155.995 124.363 157.728 123.561 158.541 C 122.76 159.353 120.985 163.754 120.985 165.067 Z M 122.875 137.89 C 122.875 138.974 124.364 142.734 125.022 143.433 C 125.68 144.131 129.216 145.679 130.219 145.679 C 131.249 145.679 134.764 144.124 135.437 143.411 C 136.109 142.699 137.607 138.974 137.607 137.89 C 137.607 136.777 136.152 133.003 135.48 132.305 C 134.807 131.606 131.249 130.059 130.219 130.059 C 129.131 130.059 125.559 131.649 124.915 132.347 C 124.271 133.046 122.875 136.806 122.875 137.89 Z M 197.834 161.986 L 181.298 161.986 L 181.298 178.464 L 172.622 178.464 L 172.622 161.986 L 156 161.986 L 156 153.297 L 172.622 153.297 L 172.622 136.734 L 181.298 136.734 L 181.298 153.297 L 197.834 153.297 L 197.834 161.986 Z" style="fill: rgb(0, 0, 0);"/>
</svg>